<?xml version="1.0" standalone="no"?>
<!DOCTYPE svg PUBLIC "-//W3C//DTD SVG 20010904//EN"
 "http://www.w3.org/TR/2001/REC-SVG-20010904/DTD/svg10.dtd">
<svg version="1.0" xmlns="http://www.w3.org/2000/svg"
 width="700.000000pt" height="700.000000pt" viewBox="0 0 700.000000 700.000000"
 preserveAspectRatio="xMidYMid meet">
<metadata>
Created by potrace 1.14, written by Peter Selinger 2001-2017
</metadata>
<g transform="translate(0.000000,700.000000) scale(0.100000,-0.100000)"
fill="#000000" stroke="none">
<path d="M3327 6414 c-1 -1 -36 -4 -77 -8 -117 -10 -157 -15 -275 -37 -455
-84 -889 -276 -1245 -552 -139 -107 -155 -121 -290 -257 -151 -151 -256 -277
-354 -425 -36 -55 -70 -104 -74 -110 -24 -30 -124 -223 -180 -345 -98 -216
-192 -545 -218 -763 -4 -29 -8 -54 -9 -57 -8 -13 -19 -228 -19 -360 0 -187 11
-343 34 -465 6 -27 13 -68 16 -90 3 -22 21 -99 39 -170 101 -397 288 -769 554
-1105 79 -100 328 -355 396 -405 22 -17 49 -38 60 -48 35 -33 210 -155 304
-212 184 -112 437 -226 641 -289 47 -14 99 -30 115 -35 35 -11 202 -47 260
-56 213 -32 297 -39 485 -39 213 0 369 13 530 44 30 6 69 13 85 16 353 61 832
280 1155 528 178 136 440 392 522 511 4 5 20 26 36 45 111 135 256 381 360
611 66 145 159 445 187 604 2 17 7 39 9 50 2 11 7 45 11 75 4 30 9 62 10 72
11 55 18 206 19 353 0 226 -13 369 -50 560 -2 11 -7 34 -9 50 -3 17 -15 64
-26 105 -12 41 -22 80 -23 85 -14 55 -24 86 -61 190 -54 150 -65 175 -132 310
-80 160 -212 374 -290 470 -5 6 -37 46 -73 90 -87 109 -304 324 -420 416 -172
138 -343 247 -529 339 -103 51 -235 110 -246 110 -4 0 -21 6 -38 14 -89 40
-331 106 -497 135 -198 35 -286 43 -508 45 -100 1 -184 1 -185 0z m333 -884
c291 -43 571 -252 704 -524 89 -183 118 -366 89 -565 -83 -560 -615 -924
-1169 -801 -266 59 -508 246 -638 492 -215 407 -106 916 257 1203 214 170 477
237 757 195z m530 -2394 c25 -4 57 -9 71 -11 95 -16 252 -83 348 -147 166
-112 296 -277 366 -462 62 -164 78 -354 41 -468 -28 -86 -66 -138 -152 -212
-128 -108 -399 -272 -539 -326 -101 -39 -141 -53 -215 -75 -47 -14 -94 -27
-105 -30 -11 -2 -31 -7 -45 -10 -14 -3 -38 -8 -55 -10 -16 -3 -37 -8 -45 -10
-8 -2 -43 -7 -77 -10 -35 -4 -75 -9 -90 -11 -49 -7 -325 -7 -393 0 -408 43
-746 174 -1085 421 -203 147 -256 242 -250 441 2 54 7 113 10 129 40 198 123
359 256 495 85 87 112 109 200 162 135 81 250 120 394 134 33 4 61 7 62 8 6 5
1268 -2 1303 -8z"/>
</g>
</svg>
